<svg id="Capa_1" enable-background="new 0 0 512 512" height="512" viewBox="0 0 512 512" width="512" xmlns="http://www.w3.org/2000/svg"><g><path d="m57.5 452.172c-.337-65.275 150.876-54.745 246.494-65.248 91.665-10.069 160.438 28.781 146.997 67.936-14.699 42.819-142.205 46.934-224.961 46.934s-168.24 6.563-168.53-49.622z" fill="#b7bcce"/><path d="m403.013 85.005c10.623 49.831-66.937 75.004-149.507 75.004s-149.507-9.579-149.507-51.003 66.937-99.006 149.507-99.006 137.781 20.002 149.507 75.005z" fill="#868eaf"/><path d="m81.748 316.717c-10.471-44.288 90.895-27.631 173.562-27.631s149.682 9.573 149.682 50.969-128.575 53.967-211.242 53.967c-35.04.001-99.069-22.605-112.002-77.305z" fill="#868eaf"/><path d="m36 224.513c0-64.504 98.287-64.504 219.531-64.504s213.524 11.001 219.531 43.863c12.237 66.945-98.287 85.145-219.531 85.145s-219.531-14.171-219.531-64.504z" fill="#b7bcce"/><g><path d="m484.898 202.073c-3.758-20.562-27.481-34.005-74.656-42.305-14.599-2.569-31.607-4.633-50.914-6.192 19.414-7.334 33.906-16.785 43.163-28.223 10.018-12.381 13.581-27.054 10.302-42.433-6.306-29.579-24.393-51.487-53.758-65.115-25.816-11.981-60.335-17.805-105.529-17.805-85.904 0-159.507 59.938-159.507 109.006 0 19.791 11.574 34.814 34.44 44.813-10.764 1.122-20.862 2.571-30.129 4.452-22.758 4.619-39.566 11.555-51.383 21.204-13.886 11.339-20.927 26.492-20.927 45.038 0 27.153 21.887 46.987 65.05 59.024-5.794 2.485-10.506 5.705-13.949 9.874-3.951 4.783-8.04 13.108-5.084 25.607 6.388 27.02 24.545 49.691 52.507 65.561 3.676 2.086 7.39 3.971 11.105 5.679-10.508 1.646-19.686 3.494-27.84 5.624-11.77 3.06-21.55 6.701-29.9 11.121-9.56 5.09-16.69 10.99-21.819 18.051-5.65 7.73-8.61 17.031-8.57 26.901v.24.04c-.04 14.081 5.1 26.741 14.48 35.642 4.38 4.22 9.52 7.721 15.699 10.711 5.51 2.66 11.74 4.86 19.04 6.73.81.2 1.64.3 2.47.3 4.57 0 8.56-3.1 9.679-7.55 1.35-5.341-1.89-10.791-7.24-12.141-11.46-2.88-20.37-7.181-25.76-12.431-5.79-5.76-8.21-11.95-8.369-21.381 0-.13 0-.16 0-.16.04-5.91 1.51-10.59 4.77-15.171 5.42-7.67 17.259-14.591 33.319-19.491 25.906-8.042 62.506-11.342 92.111-13.282 21.556-.108 64.668-1.177 107.764-7.186 9.244-1.002 18.514-1.513 27.56-1.513h.18c31.209 0 59.988 6.03 81.058 16.991 9.34 4.83 16.859 10.541 21.739 16.511 4.48 5.49 6.66 10.78 6.67 16.181 0 2.22-.38 4.39-1.14 6.621-1.19 3.46-3.62 6.69-7.43 9.871-6.96 5.87-19.22 11.401-34.519 15.571-20.839 5.761-49.059 9.871-83.878 12.211-25.54 1.72-54.039 2.53-89.678 2.53-7.97 0-32.859.18-37.319.2-5.51.03-9.98 4.54-9.95 10.051.03 5.49 4.52 9.95 10 9.95h.05c4.539-.02 29.399-.21 37.219-.21 37.599 0 92.958-.79 139.437-7.51 25.01-3.64 44.529-8.48 59.679-14.801 8.91-3.73 16.029-7.86 21.759-12.62 6.61-5.5 11.16-11.801 13.55-18.751 1.48-4.301 2.22-8.721 2.22-13.111.01-9.981-3.87-19.961-11.21-28.872-5.12-6.19-11.75-11.861-19.73-16.871-7.76-4.87-16.859-9.161-27.059-12.741-8.293-2.896-17.186-5.255-26.506-7.05 3.645-1.493 7.019-3.043 10.09-4.654 17.741-9.306 26.737-20.998 26.737-34.753 0-22.355-14.794-38.621-43.979-48.433 5.243-.805 10.322-1.669 15.193-2.605 42.933-8.249 71.323-21.277 86.791-39.831 11.163-13.39 15.168-29.242 11.901-47.114zm-370.9-93.067c0-17.16 15.564-39.508 39.651-56.934 28.587-20.681 64.05-32.071 99.857-32.071 42.224 0 73.989 5.216 97.111 15.947 23.683 10.991 37.623 27.719 42.616 51.142 2.034 9.538-.023 17.939-6.288 25.681-18.305 22.621-70.683 37.238-133.439 37.238-93.875 0-139.508-13.412-139.508-41.003zm280.994 231.05c0 12.313-24.875 24.535-66.542 32.693-8.118 1.589-16.967 3.033-26.348 4.319-20.588 2.244-107.256 6.955-108.351 6.955-26.883 0-89.958-17.527-102.271-69.607-1.288-5.447.344-7.423 1.041-8.267 2.912-3.526 11.468-8.047 35.693-9.567 14.383-.903 31.319-.603 49.502.05 19.37 1.341 73.193 2.455 77.595 2.455 93.991 0 139.681 13.401 139.681 40.969zm62.644-103.677c-16.216 19.451-64.443 42.637-202.106 42.637-23.201 0-69.367-2.091-75.917-2.334-108.395-7.458-133.613-31.467-133.613-52.169 0-16.396 6.398-36.514 56.288-46.64 38.743-7.863 94.36-7.863 153.242-7.863 188.524 0 208.165 27.295 209.694 35.66 2.18 11.925-.302 21.97-7.588 30.709z"/><circle cx="143.756" cy="501.33" r="10"/></g></g></svg>