<svg height="512" viewBox="0 0 128 128" width="512" xmlns="http://www.w3.org/2000/svg"><g><circle cx="64" cy="71.493" fill="#5a5a5a" r="13.219" transform="matrix(.663 -.748 .748 .663 -31.953 71.944)"/><path d="m64 76.711a5.219 5.219 0 1 1 5.219-5.219 5.225 5.225 0 0 1 -5.219 5.219z" fill="#444"/><g fill="#ede9e8"><path d="m52.721 64.624a13.2 13.2 0 0 1 10.633-6.318l-31.827-56.556a15.88 15.88 0 0 0 -5.812 21.691z"/><path d="m75.279 64.624 27.006-41.183a15.88 15.88 0 0 0 -5.812-21.691l-31.827 56.556a13.2 13.2 0 0 1 10.633 6.318z"/><path d="m53.054 78.9-11.028 19.6a19.482 19.482 0 1 0 -.765 18l20.939-31.926a13.207 13.207 0 0 1 -9.146-5.674zm-20.147 32.778a9.844 9.844 0 1 1 -3.607-13.448 9.856 9.856 0 0 1 3.607 13.448z"/><path d="m120.5 97.011a19.476 19.476 0 0 0 -34.526 1.489l-11.028-19.6a13.209 13.209 0 0 1 -9.143 5.67l20.936 31.93a19.491 19.491 0 1 0 33.761-19.489zm-11.957 18.27a9.844 9.844 0 1 1 3.6-13.447 9.856 9.856 0 0 1 -3.602 13.447z"/></g><g><path d="m106.618 95.561a11.58 11.58 0 1 0 7.041 5.4 11.518 11.518 0 0 0 -7.041-5.4zm4.815 13.289a8.092 8.092 0 1 1 -7.833-10.188 8.182 8.182 0 0 1 2.114.28 8.08 8.08 0 0 1 5.721 9.908z"/><path d="m30.178 96.715a11.574 11.574 0 0 0 -5.78-1.551h-.02a1.75 1.75 0 0 0 0 3.5.1.1 0 0 1 .017 0 8.086 8.086 0 1 1 -7.026 4.045 1.75 1.75 0 1 0 -3.031-1.75 11.6 11.6 0 0 0 10.013 17.393 11.66 11.66 0 0 0 3.027-.4 11.594 11.594 0 0 0 2.8-21.235z"/><path d="m64 64.523a6.969 6.969 0 1 0 6.969 6.969 6.977 6.977 0 0 0 -6.969-6.969zm0 10.438a3.469 3.469 0 1 1 3.469-3.469 3.473 3.473 0 0 1 -3.469 3.469z"/><path d="m122.014 96.136a21.231 21.231 0 0 0 -36.037-1.2l-9.007-16a14.839 14.839 0 0 0 .352-14.236l5.4-8.234a1.75 1.75 0 1 0 -2.927-1.92l-4.611 7.031a14.969 14.969 0 0 0 -7.758-4.643l29.65-52.688a14.123 14.123 0 0 1 3.745 18.234l-5.009 7.639a1.75 1.75 0 1 0 2.927 1.92l5.061-7.724a17.649 17.649 0 0 0 -6.452-24.081 1.752 1.752 0 0 0 -2.4.658l-30.948 54.994-30.948-54.994a1.752 1.752 0 0 0 -2.4-.658 17.667 17.667 0 0 0 -6.4 24.166l26.426 40.3a14.839 14.839 0 0 0 .352 14.233l-9.007 16a21.237 21.237 0 1 0 .7 22.525l20.36-31.043c.3.018.607.046.917.046s.612-.028.917-.047l20.307 30.962a21.241 21.241 0 0 0 36.79-21.24zm-94.783-73.571a14.149 14.149 0 0 1 3.693-18.319l29.65 52.688a14.965 14.965 0 0 0 -7.758 4.643zm12.514 93.061a17.768 17.768 0 1 1 .694-16.384 1.752 1.752 0 0 0 1.52 1.009 1.732 1.732 0 0 0 1.591-.891l9.783-17.384a14.994 14.994 0 0 0 6.023 3.739zm22.769-32.773h-.008a11.463 11.463 0 0 1 1.494-22.83c.215 0 .425.021.636.033h.011a11.46 11.46 0 1 1 -2.133 22.8zm49.975 39.267a17.785 17.785 0 0 1 -24.289-6.579l-19.556-29.826a14.994 14.994 0 0 0 6.023-3.739l9.783 17.384a1.729 1.729 0 0 0 1.591.891 1.749 1.749 0 0 0 1.519-1.009 17.736 17.736 0 1 1 24.929 22.878z"/><path d="m89.307 40.04-3.007 4.584a1.75 1.75 0 1 0 2.926 1.92l3.006-4.584a1.75 1.75 0 1 0 -2.926-1.92z"/></g></g></svg>